<svg width="20px" height="20px" fill="none" xmlns="http://www.w3.org/2000/svg" viewBox="0 0 20 14"><path d="M8.427 13H14.5a1 1 0 0 0 1-1V4.609a1 1 0 0 0-1-1H5a1 1 0 0 0-1 1v3.815a1 1 0 0 0 .278.692l3.427 3.576a1 1 0 0 0 .722.308zM1.5 7.26H4" stroke="black"></path><path d="M1 4.652V9.87" stroke="black" stroke-linecap="round"></path><path d="M10 1.522v2.087" stroke="black"></path><path d="M12 1H8" stroke="black" stroke-linecap="round"></path><path d="M16 6.217h2.5M16 10.391h2.5" stroke="black"></path><path d="M19 4.13v8.348" stroke="black" stroke-linecap="round"></path></svg>
